/* XPM */
static char *result[] = {
/* columns rows colors chars-per-pixel */
"128 128 33 1 ",
"  c #000000",
". c #000C0C",
"X c #001414",
"o c #001B1B",
"O c #002323",
"+ c #002B2B",
"@ c #003434",
"# c #003B3B",
"$ c #004444",
"% c #004C4C",
"& c #005353",
"* c #005C5C",
"= c #006363",
"- c #006C6C",
"; c #007373",
": c #007B7B",
"> c #008484",
", c #008B8B",
"< c #009393",
"1 c #009C9C",
"2 c #00A4A4",
"3 c #00ACAC",
"4 c #00B3B3",
"5 c #00BCBC",
"6 c #00C4C4",
"7 c #00CBCB",
"8 c #00D4D4",
"9 c #00DCDC",
"0 c #00E3E3",
"q c #00ECEC",
"w c #00F4F4",
"e c #00FFFF",
"r c None",
/* pixels */
"rrrrrrrrrrrrrrrrrrrrrrrrrrrrrrrrrrrrrrrrrrrrrrrrrrrrrrrrrrrrrrrrrrrrrrrrrrrrrrrrrrrrrrrrrrrrrrrrrrrrrrrrrrrrrrrrrrrrrrrrrrrrrrrr",
"rrrrrrrrrrrrrrrrrrrrrrrrrrrrrrrrrrrrrrrrrrrrrrrrrrrrrrrrrrrrrrrrrrrrrrrrrrrrrrrrrrrrrrrrrrrrrrrrrrrrrrrrrrrrrrrrrrrrrrrrrrrrrrrr",
"rrrrrrrrrrrrrrrrrrrrrrrrrrrrrrrrrrrrrrrrrrrrrrrrrrrrrrrrrrrrrrrrrrrrrrrrrrrrrrrrrrrrrrrrrrrrrrrrrrrrrrrrrrrrrrrrrrrrrrrrrrrrrrrr",
"rrrrrrrrrrrrrrrrrrrrrrrrrrrrrrrrrrrrrrrrrrrrrrrrrrrrrrrrrrrrrrrrrrrrrrrrrrrrrrrrrrrrrrrrrrrrrrrrrrrrrrrrrrrrrrrrrrrrrrrrrrrrrrrr",
"rrrrrrrrrrrrrrrrrrrrrrrrrrrrrrrrrrrrrrrrrrrrrrrrrrrreeweeeeeeeeeeeeewqrrrrrrrrrrrrrrrrrrrrrrrrrrrrrrrrrrrrrrrrrrrrrrrrrrrrrrrrrr",
"rrrrrrrrrrrrrrrrrrrrrrrrrrrrrrrrrrrrrrrrrrrrrrreeeeeeeeeeeeeeeeeeeeeeeeeew0rrrrrrrrrrrrrrrrrrrrrrrrrrrrrrrrrrrrrrrrrrrrrrrrrrrrr",
"rrrrrrrrrrrrrrrrrrrrrrrrrrrrrrrrrrrrrrrrrrreeeeeeeeeeeeeeeeeeeeeeeeeeeeeeeeeeqrrrrrrrrrrrrrrrrrrrrrrrrrrrrrrrrrrrrrrrrrrrrrrrrrr",
"rrrrrrrrrrrrrrrrrrrrrrrrrrrrrrrrrrrrrrrreeeeeeeeeeeeeeeeeeeeeeeeeeeeeeeeeeeeeeeeqrrrrrrrrrrrrrrrrrrrrrrrrrrrrrrrrrrrrrrrrrrrrrrr",
"rrrrrrrrrrrrrrrrrrrrrrrrrrrrrrrrrrrrrreeeeeeeeeeeeeeeeeeeeeeeeeeeeeeeeeeeeeeeeeeeew8rrrrrrrrrrrrrrrrrrrrrrrrrrrrrrrrrrrrrrrrrrrr",
"rrrrrrrrrrrrrrrrrrrrrrrrrrrrrrrrrrrreeeeeeeeeeeeeeeeeeeeeeeeeeeeeeeeeeeeeeeeeeeeeeeew9rrrrrrrrrrrrrrrrrrrrrrrrrrrrrrrrrrrrrrrrrr",
"rrrrrrrrrrrrrrrrrrrrrrrrrrrrrrrrrreeeeeeeeeeeeeeeeeeeeeeeeeeeeeeeeeeeeeeeeeeeeeeeeeeeew8rrrrrrrrrrrrrrrrrrrrrrrrrrrrrrrrrrrrrrrr",
"rrrrrrrrrrrrrrrrrrrrrrrrrrrrrrrreeeeeeeeeeeeeeeeeeeeeeeeeeeeeeeeeeeeeeeeeeeeeeeeeeeeeeeew6rrrrrrrrrrrrrrrrrrrrrrrrrrrrrrrrrrrrrr",
"rrrrrrrrrrrrrrrrrrrrrrrrrrrrrreeeeeeeeeeeeeeeeeeeeeeeeeeeeeeeeeeeeeeeeeeeeeeeeeeeeeeeeeeee0rrrrrrrrrrrrrrrrrrrrrrrrrrrrrrrrrrrrr",
"rrrrrrrrrrrrrrrrrrrrrrrrrrrrreeeeeeeeeeeeeeeeeeeeeeeeeeeeeeeeeeeeeeeeeeeeeeeeeeeeeeeeeeeeeee6rrrrrrrrrrrrrrrrrrrrrrrrrrrrrrrrrrr",
"rrrrrrrrrrrrrrrrrrrrrrrrrrreeeeeeeeeeeeeeeeeeeeeeeeeeeeeeeeeeeeeeeeeeeeeeeeeeeeeeeeeeeeeeeeee0rrrrrrrrrrrrrrrrrrrrrrrrrrrrrrrrrr",
"rrrrrrrrrrrrrrrrrrrrrrrrrreeeeeeeeeeeeeeeeeeeeeeeeeeeeeeeeeeeeeeeeeeeeeeeeeeeeeeeeeeeeeeeeeeeew2rrrrrrrrrrrrrrrrrrrrrrrrrrrrrrrr",
"rrrrrrrrrrrrrrrrrrrrrrrrreeeeeeeeeeeeeeeeeeeeeeeeeeeeeeeeeeeeeeeeeeeeeeeeeeeeeeeeeeeeeeeeeeeeeee6rrrrrrrrrrrrrrrrrrrrrrrrrrrrrrr",
"rrrrrrrrrrrrrrrrrrrrrrrreeeeeeeeeeeeeeeeeeeeeeeeeeeeeeeeeeeeeeeeeeeeeeeeeeeeeeeeeeeeeeeeeeeeeeeee8rrrrrrrrrrrrrrrrrrrrrrrrrrrrrr",
"rrrrrrrrrrrrrrrrrrrrrrreeeeeeeeeeeeeeeeeeeeeeeeeeeeeeeeeeeeeeeeeeeeeeeeeeeeeeeeeeeeeeeeeeeeeeeeeee9rrrrrrrrrrrrrrrrrrrrrrrrrrrrr",
"rrrrrrrrrrrrrrrrrrrrreeeeeeeeeeeeeeeeeeeeeeeeeeeeeeeeeeeeeeeeeeeeeeeeeeeeeeeeeeeeeeeeeeeeeeeeeeeeee0rrrrrrrrrrrrrrrrrrrrrrrrrrrr",
"rrrrrrrrrrrrrrrrrrrreeeeeeeeeeeeeeeeeeeeeeeeeeeeeeeeeeeeeeeeeeeeeeeeeeeeeeeeeeeeeeeeeeeeeeeeeeeeeeee0rrrrrrrrrrrrrrrrrrrrrrrrrrr",
"rrrrrrrrrrrrrrrrrrreeeeeeeeeeeeeeeeeeeeeeeeeeeeeeeeeeeeeeeeeeeeeeeeeeeeeeeeeeeeeeeeeeeeeeeeeeeeeeeeee0rrrrrrrrrrrrrrrrrrrrrrrrrr",
"rrrrrrrrrrrrrrrrrrreeeeeeeeeeeeeeeeeeeeeeeeeeeeeeeeeeeeeeeeeeeeeeeeeeeeeeeeeeeeeeeeeeeeeeeeeeweeeeeeee9rrrrrrrrrrrrrrrrrrrrrrrrr",
"rrrrrrrrrrrrrrrrrreeeeeeeeeeeeeeeeeeeeeeeeeeeeeeeeeeeeeeeeeeeeeeeeeeeeeeeeeeweeeeq0900qqwwwweweeeeeeeee8rrrrrrrrrrrrrrrrrrrrrrrr",
"rrrrrrrrrrrrrrrrreeeeeeeeeeeeeeeeeeeeeeeeeeeeeeeeeeeeeeeeeeeeeeeeeeeeew0737wwwew<#+O++#%-,370wwwwweweeee5rrrrrrrrrrrrrrrrrrrrrrr",
"rrrrrrrrrrrrrrrreeeeeeeeeeeeeeeeeeeeeeeeeeeeeeeeeeeeeeeeeeeeeeeeeeq72;%OX >qqww,           o$:39qqwwwewew1rrrrrrrrrrrrrrrrrrrrrr",
"rrrrrrrrrrrrrrreeeeeeeeeeeeeeeeeeeeeeeeeeeeeeeeeeeeeeeeeeeeeeeee4-@X      19908@              .@;50qqwweew-rrrrrrrrrrrrrrrrrrrrr",
"rrrrrrrrrrrrrreeeeeeeeeeeeeeeeeeeeeeeeeeeeeeeeeeeeeeeeeeeeeeeee0O        o26783.                 o&390qqwe9rrrrrrrrrrrrrrrrrrrrr",
"rrrrrrrrrrrrrreeeeeeeeeeeeeeeeeeeeeeeeeeeeeeeeeeeeeeeeeeeeeeeee6X        +1346<.                   X=790qwe4rrrrrrrrrrrrrrrrrrrr",
"rrrrrrrrrrrrreeeeeeeeeeeeeeeeeeeeeeeeeeeeeeeeeeeeeeeew72qwwewee1         #,<24<                     O3780qww:rrrrrrrrrrrrrrrrrrr",
"rrrrrrrrrrrreeeeeeeeeeeeeeeeeeeeeeeeeeeeeeeeeeeeeee91&XO9qqwwee;         $;><3<.                    +14680qe9rrrrrrrrrrrrrrrrrrr",
"rrrrrrrrrrrreeeeeeeeeeeeeeeeeeeeeeeeeeeeeeeeeeeew6;+   X5900qqq%         %-:,31X                    +>1479qwe2rrrrrrrrrrrrrrrrrr",
"rrrrrrrrrrreeeeeeeeeeeeeeeeeeeeeeeeeeeeeeeeeeeq2%X     .<7780q9+        .%=;,23O                    @;,258qweq&rrrrrrrrrrrrrrrrr",
"rrrrrrrrrrreeeeeeeeeeeeeeeeeeeeeeeeeeeeeeeeew<#         ;447805.        o%=;<34@                    @=:1470wwe5rrrrrrrrrrrrrrrrr",
"rrrrrrrrrreeeeeeeeeeeeeeeeeeeeeeeeeeeeeeeeee9o          &<2479<         O&=:<46$                    @=;<479weew=rrrrrrrrrrrrrrrr",
"rrrrrrrrrreeeeeeeeeeeeeeeeeeeeeeeeeeeeeeeeee6X          #><368-         @&=:147*          .ooX..    #=;<370wwee6rrrrrrrrrrrrrrrr",
"rrrrrrrrreeeeeeeeeeeeeeeeeeeeeeeeeeeeeeeeeee4           O;>147$         #*->258;          @%%%%$$#+o&-:1470weeew*rrrrrrrrrrrrrrr",
"rrrrrrrrreeeeeeeeeeeeeeeeeeeeeeeeeeeweweweee2           X=:<44O        .$*-,268,          @%%&&===-=-;,1480wweee4rrrrrrrrrrrrrrr",
"rrrrrrrreeeeeeeeeeeeeeeeeeeeeeeeew3--8wwwwew,           X*;,31.        o%*;<4792.         #%&*-;::>:>,1369qweeeeq$rrrrrrrrrrrrrr",
"rrrrrrrreeeeeeeeeeeeeeeeeeeeeeeq2$   *00qqww;           .%;,3:         O&=:14705X         @&*-:,<111123680qweeeee1rrrrrrrrrrrrrr",
"rrrrrrreeeeeeeeeeeeeeeeeeeeeew2$.    o4899qq*            %->2*         @&-:15807o         +&=:<2345556679qweeeeee8orrrrrrrrrrrrr",
"rrrrrrreeeeeeeeeeeeeeeeeeeew3$.      .,56899$            $->1#         #*->359q9@         +*->1468788890qwweeeeeee=rrrrrrrrrrrrr",
"rrrrrrreeeeeeeeeeeeeeeeeew3%.         -24688@            #-:,o        X%*;,369q0%         o*;,35890q00qqwweeeeeeee3 rrrrrrrrrrrr",
"rrrrrreeeeeeeeeeeeeeeeew4%.           %,1366O            +=:;.        o%*;<470qq*         X*;,369qqwwwwwweweeeeeee9Orrrrrrrrrrrr",
"rrrrrreeeeeeeeeeeeeeew5&.             @:,253X            O=;*         O&=:<580qw:         .&;,379qweweeeeeeeeeeeeew* rrrrrrrrrrr",
"rrrrrreeeeeeeeeeeeew6*X               O->151.            o*;$         @&->158qww<         .%-,369wweeeeeeeeeeeeeeee1 rrrrrrrrrrr",
"rrrrrreeeeeeeeeeee6=X                 X=;<4,.@@          X*-+         $*->269qww3          $-,269qweeeeeeeeeeeeeeee7.rrrrrrrrrrr",
"rrrrreeeeeeeeeee7-X                   .&;,3215;          .&=o        .%*-,379qww6X         #->259qweeeeeeeeeeeeeeeeq@ rrrrrrrrrr",
"rrrrreeeeeeeee7-o                     .%-,2567,.         .%&         o%*:<470wwe8o         @=>158qweeeeeeeeeeeeeeeee* rrrrrrrrrr",
"rrrrreeeeeee8-o                        $->25661.          $$         +&=:<480www0+         O=:1580wweeeeeeeeeeeeeeee, rrrrrrrrrr",
"rrrrreeeeee9+                          #->14774o          #@         @&=:158qwewq$         o*:<480weeeeeeeeeeeeeeeee4 rrrrrrrrrr",
"rrrrreeeeee5.                          @=>14786+          +O         O&->268qwwew*         X*;<470wweeeeeeeeeeeeeeee8. rrrrrrrrr",
"rrrreeeeeee2                           +=:14788$          OX         .%->269qweew:         .&;,370qeeeeeeeeeeeeeeeee0O rrrrrrrrr",
"rrrreeeeeee,              XO#.         o=:<4799*          .           +->259qweww,         .%-,369qweeeeeeeeeeeeeeeew# rrrrrrrrr",
"rrrreeeeeee;           .O@$%%O         o*;<4790;                      .*>1580weww3          $->259qweeeeqqweeeeeeeeew& rrrrrrrrr",
"rrrreeeeeew&          X$%%&**+         .&;,369q,                       #:1480wwee5X         @->159qw06<=@,wqwwweeeeee- rrrrrrrrr",
"rrrreeeeeeq#          +$%&*=;$         .%;,369q2           .           X=<369qeww8o         +=:143,*@.   ,00qqweeeeee: rrrrrrrrr",
"rrrreeeeeeq*@.        +%&=-:,=          %->26905X          O            #>2580wwe9+         o&=%@X       ,8790qweeeee,  rrrrrrrr",
"rrrreeeeeew07+        O%*-><2-          #->26807o          @X           X-<360qwwq$          ..         .,45690wweeee<  rrrrrrrr",
"rrrreeeeeewq9$        o&*;>;=+          @=>25808+          ++            #>2580wwq*                     X>12579qweeee1  rrrrrrrr",
"rrrreeeeeeeq0*        X&=#o             +=:15800$          O#X           X-<379qwq;                     X;,<369qweeee1  rrrrrrrr",
"rrrreeeeeewwq:        .&=o              O=:15700&          o%+            $>2580qw,                     o-:,2680weeee1  rrrrrrrr",
"rrrreeeeeewwq1        .%*X              o*;<4700-          X$$.           X-<379qw2                     O=;,259qweeee<  rrrrrrrr",
"rrrreeeeeeeww5X        $&               o*;<370q,          X%&@            #>2580q5.                  .+%*-,269qwweee,  rrrrrrrr",
"rrrreeeeeeeew8O        #%               o*;,479q2          .$*&.           X-<37907o                .O$&*=;<379wweeee:  rrrrrrrr",
"rrrreeeeeeeww0#        @#               O*;<379q4.          $*-@            #>15898+              .O#%&&=;,1570qeeeee-  rrrrrrrr",
"rrrreeeeeeeeeq&        O+               @=;<479q6X          #=-=.           X-<3699#            .o#%&&*=;>1369qweeeew*  rrrrrrrr",
"rrrrweeeeeeeew;        oO            .o@&=:<470q8+          #*-:#            #>2579&           o#%&&*=;:,13680qeeeeew$  rrrrrrrr",
"rrrrweeeeeeeew,        XX         .O@$%&*->1580q0#          @=;>-.           .-<368-         o#$&&*-;:,<24780qweeeee0O  rrrrrrrr",
"rrrrqeeeeeeeew3.                   +$%%*-:<3680wq%          O=;><#            @>147>       o#%%&*=-:><245790qwweeeee8X  rrrrrrrr",
"rrrrreeeeeeeew6X                   X$&*-:,2570qqw=          o*;>1:.           .=<351.    o#%%&&=-:><246790qwweeeeeee5   rrrrrrrr",
"rrrrreeeeeeeee9O        o           O&=;,1479qwww>          X&;,11@            +>145&.XO&*&&*=-:><2457800qwweeeeeeee<  rrrrrrrrr",
"rrrrreeeeeeeee0#        +X          .%-:13690wwew1          .&;>13>            .*<244<,,:-=--;><2357800qwweeeeeeeeee=  rrrrrrrrr",
"rrrrrweeeeeeeww&        O@           +->1489qwwee3.         .%->234#            +:135531,:::><235780qqweeeeeeeeeeeeq#  rrrrrrrrr",
"rrrrrqeeeeeeeww;        o$o           &>2580qweww6X          $->145>            .*<245432<<1235789qqwweeeeeeeeeeeee8X  rrrrrrrrr",
"rrrrrreeeeeeeew,        X$$.          O:<470qeeee8o          $->1465#          X#->1356544445789qqwweweeeeeeeeeeeee2   rrrrrrrrr",
"rrrrrreeeeeeeww3        .$&@           &,369qweww0@          @-:1467>        X@%*->146777778890qwwweeeeeeeeeeeeeeee=   rrrrrrrrr",
"rrrrrrqeeeeeeee6X       .$&&o          o;1470qweeq%          +=:14785@     o#%&&=;,147890900qqwweeeeeeeeeeeeeeeeee0+  rrrrrrrrrr",
"rrrrrrreeeeeeew8O        $*=$           $,268qweww*          O=:<4788>  .+$&&&*=;>13689qwqqwqwweeeeeeeeeeeeeeeeeee4   rrrrrrrrrr",
"rrrrrrreeeeeeee0@        #*=;+          X-1479qwww;          o*;<37896%&;;==*--;,<3579qwwwweeeeeeeeeeeeeeeeeeeeeee;   rrrrrrrrrr",
"rrrrrrrqeeeeeeeq%        @*-:=.          @>258qwww,          X&;<36999631,:;;:><23679qqeeeeeeeeeeeeeeeeeeeeeeeeee0O   rrrrrrrrrr",
"rrrrrrrreeeeeeww-        +*;>,#          .=<469qww3          .&;,369008631,,,1235780qwweeeeeeeeeeeeeeeeeeeeeeeeee2   rrrrrrrrrrr",
"rrrrrrrrweeeeeew>        O*;><:X          +>2580qw5.         .%-,3690q0864333457890qwweeeeeeeeeeeeeeeeeeeeeeeeeew&   rrrrrrrrrrr",
"rrrrrrrr8eeeeeew2        o*;>12&           *<368qq7o        .O&;,269qqq9876677990qwweweeeeeeeeeeeeeeeeeeeeeeeeee6.   rrrrrrrrrrr",
"rrrrrrrrrweeeeew5.       X*-,131o          O:1570q8+     .o@$&=;<369qwwq099990qqwweeeeeeeeeeeeeeeeeeeeeeeeeeeeee-   rrrrrrrrrrrr",
"rrrrrrrrr9eeeeee0>+      .&;>245-           %,36809#  o@$%&&*=;:1470qwwwwqqqqqwweweeeeeeeeeeeeeeeeeeeeeeeeeeeee7X   rrrrrrrrrrrr",
"rrrrrrrrrrweeeewq05:@.    %;,2463+          o;14790:-,,>;=*=-;><3580wweewwwweweeeeeeeeeeeeeeeeeeeeeeeeeeeeeeeee;   rrrrrrrrrrrrr",
"rrrrrrrrrr7eeeeew0851;$O..%;,2567:           $<36999852,::;::,13579qweweeeeeeeeeeeeeeeeeeeeeeeeeeeeeeeeeeeeeee6X   rrrrrrrrrrrrr",
"rrrrrrrrrrrweeeewq9641>:=&=:<26785#....XXoO@$=,258999642<,<<124689qwweeeeeeeeeeeeeeeeeeeeeeeeeeeeeeeeeeeeeeeew=   rrrrrrrrrrrrrr",
"rrrrrrrrrrr6eeeewq09642<,>>,1468984,>;=*****-;,257909864333456799qwweeeeeeeeeeeeeeeeeeeeeeeeeeeeeeeeeeeeeeeee4.   rrrrrrrrrrrrrr",
"rrrrrrrrrrrr0eeeewq087532112357909863<>;---;;><25800098776678900qwweeeeeeeeeeeeeeeeeeeeeeeeeeeeeeeeeeeeeeeeeq$   rrrrrrrrrrrrrrr",
"rrrrrrrrrrrrrweeeewq098655456790qq07531<,>,,,134690qqqq999000qqweweeeeeeeeeeeeeeeeeeeeeeeeeeeeeeeeeeeeeeeeee>    rrrrrrrrrrrrrrr",
"rrrrrrrrrrrrr7eeeewwwq099878890qqwq986433223345689qwwwqqqqqwwwweeeeeeeeeeeeeeeeeeeeeeeeeeeeeeeeeeeeeeeeeeee6X   rrrrrrrrrrrrrrrr",
"rrrrrrrrrrrrrr0eeeeeewwqq0000qwwwwwq0877666677890qwwewewewweeeeeeeeeeeeeeeeeeeeeeeeeeeeeeeeeeeeeeeeeeeeeee0$    rrrrrrrrrrrrrrrr",
"rrrrrrrrrrrrrrrweeeeewwwwwwqqwwwewwwwq099999900qwwweeweeeweeeeeeeeeeeeeeeeeeeeeeeeeeeeeeeeeeeeeeeeeeeeeeee:    rrrrrrrrrrrrrrrrr",
"rrrrrrrrrrrrrrr2eeeeeeeeeeweeweeeeeewwwwqqqqwqwwwweeeeeeeeeeeeeeeeeeeeeeeeeeeeeeeeeeeeeeeeeeeeeeeeeeeeeee2.   rrrrrrrrrrrrrrrrrr",
"rrrrrrrrrrrrrrrr6eeeeeeeeeeeeeeeeeeeeewwwewwweeweeeeeeeeeeeeeeeeeeeeeeeeeeeeeeeeeeeeeeeeeeeeeeeeeeeeeeee7o    rrrrrrrrrrrrrrrrrr",
"rrrrrrrrrrrrrrrrr8eeeeeeeeeeeeeeeeeeeeeeeeeeeeeeeeeeeeeeeeeeeeeeeeeeeeeeeeeeeeeeeeeeeeeeeeeeeeeeeeeeeee9@    rrrrrrrrrrrrrrrrrrr",
"rrrrrrrrrrrrrrrrrr9eeeeeeeeeeeeeeeeeeeeeeeeeeeeeeeeeeeeeeeeeeeeeeeeeeeeeeeeeeeeeeeeeeeeeeeeeeeeeeeeeee0%    rrrrrrrrrrrrrrrrrrrr",
"rrrrrrrrrrrrrrrrrrr0eeeeeeeeeeeeeeeeeeeeeeeeeeeeeeeeeeeeeeeeeeeeeeeeeeeeeeeeeeeeeeeeeeeeeeeeeeeeeeeeeq*    rrrrrrrrrrrrrrrrrrrrr",
"rrrrrrrrrrrrrrrrrrrr0eeeeeeeeeeeeeeeeeeeeeeeeeeeeeeeeeeeeeeeeeeeeeeeeeeeeeeeeeeeeeeeeeeeeeeeeeeeeeeeq=     rrrrrrrrrrrrrrrrrrrrr",
"rrrrrrrrrrrrrrrrrrrrr0eeeeeeeeeeeeeeeeeeeeeeeeeeeeeeeeeeeeeeeeeeeeeeeeeeeeeeeeeeeeeeeeeeeeeeeeeeeeeq=     rrrrrrrrrrrrrrrrrrrrrr",
"rrrrrrrrrrrrrrrrrrrrrr9eeeeeeeeeeeeeeeeeeeeeeeeeeeeeeeeeeeeeeeeeeeeeeeeeeeeeeeeeeeeeeeeeeeeeeeeeee0*     rrrrrrrrrrrrrrrrrrrrrrr",
"rrrrrrrrrrrrrrrrrrrrrrr8eeeeeeeeeeeeeeeeeeeeeeeeeeeeeeeeeeeeeeeeeeeeeeeeeeeeeeeeeeeeeeeeeeeeeeeee9%     rrrrrrrrrrrrrrrrrrrrrrrr",
"rrrrrrrrrrrrrrrrrrrrrrrr5eeeeeeeeeeeeeeeeeeeeeeeeeeeeeeeeeeeeeeeeeeeeeeeeeeeeeeeeeeeeeeeeeeeeeee6#     rrrrrrrrrrrrrrrrrrrrrrrrr",
"rrrrrrrrrrrrrrrrrrrrrrrrr1weeeeeeeeeeeeeeeeeeeeeeeeeeeeeeeeeeeeeeeeeeeeeeeeeeeeeeeeeeeeeeeeeeee2o     rrrrrrrrrrrrrrrrrrrrrrrrrr",
"rrrrrrrrrrrrrrrrrrrrrrrrrr-9eeeeeeeeeeeeeeeeeeeeeeeeeeeeeeeeeeeeeeeeeeeeeeeeeeeeeeeeeeeeeeeeeq:.     rrrrrrrrrrrrrrrrrrrrrrrrrrr",
"rrrrrrrrrrrrrrrrrrrrrrrrrrrr5weeeeeeeeeeeeeeeeeeeeeeeeeeeeeeeeeeeeeeeeeeeeeeeeeeeeeeeeeeeeee6$     rrrrrrrrrrrrrrrrrrrrrrrrrrrrr",
"rrrrrrrrrrrrrrrrrrrrrrrrrrrrr:9eeeeeeeeeeeeeeeeeeeeeeeeeeeeeeeeeeeeeeeeeeeeeeeeeeeeeeeeeeeq,X     rrrrrrrrrrrrrrrrrrrrrrrrrrrrrr",
"rrrrrrrrrrrrrrrrrrrrrrrrrrrrrrr3qeeeeeeeeeeeeeeeeeeeeeeeeeeeeeeeeeeeeeeeeeeeeeeeeeeeeeeew4#      rrrrrrrrrrrrrrrrrrrrrrrrrrrrrrr",
"rrrrrrrrrrrrrrrrrrrrrrrrrrrrrrrr&5weeeeeeeeeeeeeeeeeeeeeeeeeeeeeeeeeeeeeeeeeeeeeeeeeeee7=.     rrrrrrrrrrrrrrrrrrrrrrrrrrrrrrrrr",
"rrrrrrrrrrrrrrrrrrrrrrrrrrrrrrrrrr=6weeeeeeeeeeeeeeeeeeeeeeeeeeeeeeeeeeeeeeeeeeeeeeee7-X      rrrrrrrrrrrrrrrrrrrrrrrrrrrrrrrrrr",
"rrrrrrrrrrrrrrrrrrrrrrrrrrrrrrrrrrrr*5qeeeeeeeeeeeeeeeeeeeeeeeeeeeeeeeeeeeeeeeeeeew6-X      rrrrrrrrrrrrrrrrrrrrrrrrrrrrrrrrrrrr",
"rrrrrrrrrrrrrrrrrrrrrrrrrrrrrrrrrrrrrr$18eeeeeeeeeeeeeeeeeeeeeeeeeeeeeeeeeeeeeee03%.      rrrrrrrrrrrrrrrrrrrrrrrrrrrrrrrrrrrrrr",
"rrrrrrrrrrrrrrrrrrrrrrrrrrrrrrrrrrrrrrrro=39weeeeeeeeeeeeeeeeeeeeeeeeeeeeeeeeq4-O       rrrrrrrrrrrrrrrrrrrrrrrrrrrrrrrrrrrrrrrr",
"rrrrrrrrrrrrrrrrrrrrrrrrrrrrrrrrrrrrrrrrrr o*<7qeeeeeeeeeeeeeeeeeeeeeeeeeq82=+        rrrrrrrrrrrrrrrrrrrrrrrrrrrrrrrrrrrrrrrrrr",
"rrrrrrrrrrrrrrrrrrrrrrrrrrrrrrrrrrrrrrrrrrrr  .@*,470wweeeeeeeeeeeew085<=@X         rrrrrrrrrrrrrrrrrrrrrrrrrrrrrrrrrrrrrrrrrrrr",
"rrrrrrrrrrrrrrrrrrrrrrrrrrrrrrrrrrrrrrrrrrrrrrr    XO#&-:,<111<,>-&$+X           rrrrrrrrrrrrrrrrrrrrrrrrrrrrrrrrrrrrrrrrrrrrrrr",
"rrrrrrrrrrrrrrrrrrrrrrrrrrrrrrrrrrrrrrrrrrrrrrrrrrr                          rrrrrrrrrrrrrrrrrrrrrrrrrrrrrrrrrrrrrrrrrrrrrrrrrrr",
"rrrrrrrrrrrrrrrrrrrrrrrrrrrrrrrrrrrrrrrrrrrrrrrrrrrrrrrrr              rrrrrrrrrrrrrrrrrrrrrrrrrrrrrrrrrrrrrrrrrrrrrrrrrrrrrrrrr",
"rrrrrrrrrrrrrrrrrrrrrrrrrrrrrrrrrrrrrrrrrrrrrrrrrrrrrrrrrrrrrrrrrrrrrrrrrrrrrrrrrrrrrrrrrrrrrrrrrrrrrrrrrrrrrrrrrrrrrrrrrrrrrrrr",
"rrrrrrrrrrrrrrrrrrrrrrrrrrrrrrrrrrrrrrrrrrrrrrrrrrrrrrrrrrrrrrrrrrrrrrrrrrrrrrrrrrrrrrrrrrrrrrrrrrrrrrrrrrrrrrrrrrrrrrrrrrrrrrrr",
"rrrrrrrrrrrrrrrrrrrrrrrrrrrrrrrrrrrrrrrrrrrrrrrrrrrrrrrrrrrrrrrrrrrrrrrrrrrrrrrrrrrrrrrrrrrrrrrrrrrrrrrrrrrrrrrrrrrrrrrrrrrrrrrr",
"rrrrrrrrrrrrrrrrrrrrrrrrrrrrrrrrrrrrrrrrrrrrrrrrrrrrrrrrrrrrrrrrrrrrrrrrrrrrrrrrrrrrrrrrrrrrrrrrrrrrrrrrrrrrrrrrrrrrrrrrrrrrrrrr",
"rrrrrrrrrrrrrrrrrrrrrrrrrrrrrrrrrrrrrrrrrrrrrrrrrrrrrrrrrrrrrrrrrrrrrrrrrrrrrrrrrrrrrrrrrrrrrrrrrrrrrrrrrrrrrrrrrrrrrrrrrrrrrrrr",
"rrrrrrrrrrrrrrrrrrrrrrrrrrrrrrrrrrrrrrrrrrrrrrrrrrrrrrrrrrrrrrrrrrrrrrrrrrrrrrrrrrrrrrrrrrrrrrrrrrrrrrrrrrrrrrrrrrrrrrrrrrrrrrrr",
"rrrrrrrrrrrrrrrrrrrrrrrrrrrrrrrrrrrrrrrrrrrrrrrrrrrrrrrrrrrrrrrrrrrrrrrrrrrrrrrrrrrrrrrrrrrrrrrrrrrrrrrrrrrrrrrrrrrrrrrrrrrrrrrr",
"rrrrrrrrrrrrrrrrrrrrrrrrrrrrrrrrrrrrrrrrrrrrrrrrrrrrrrrrrrrrrrrrrrrrrrrrrrrrrrrrrrrrrrrrrrrrrrrrrrrrrrrrrrrrrrrrrrrrrrrrrrrrrrrr"
};
