/* XPM */
static char *result[] = {
/* columns rows colors chars-per-pixel */
"64 64 252 2 ",
"   c black",
".  c #000101",
"X  c #000202",
"o  c #000303",
"O  c #000404",
"+  c #000505",
"@  c #000606",
"#  c #000707",
"$  c #000808",
"%  c #000909",
"&  c #000A0A",
"*  c #000B0B",
"=  c #000C0C",
"-  c #000D0D",
";  c #000E0E",
":  c #000F0F",
">  c #001010",
",  c #001111",
"<  c #001212",
"1  c #001313",
"2  c #001414",
"3  c #001515",
"4  c #001616",
"5  c #001717",
"6  c #001818",
"7  c #001919",
"8  c #001A1A",
"9  c #001B1B",
"0  c #001C1C",
"q  c #001D1D",
"w  c #001E1E",
"e  c #001F1F",
"r  c #002020",
"t  c #002121",
"y  c #002222",
"u  c #002323",
"i  c #002424",
"p  c #002525",
"a  c #002626",
"s  c #002727",
"d  c #002929",
"f  c #002A2A",
"g  c #002B2B",
"h  c #002C2C",
"j  c #002D2D",
"k  c #002F2F",
"l  c #003030",
"z  c #003131",
"x  c #003232",
"c  c #003333",
"v  c #003434",
"b  c #003535",
"n  c #003636",
"m  c #003737",
"M  c #003838",
"N  c #003939",
"B  c #003A3A",
"V  c #003B3B",
"C  c #003C3C",
"Z  c #003D3D",
"A  c #003E3E",
"S  c #003F3F",
"D  c #004141",
"F  c #004242",
"G  c #004343",
"H  c #004444",
"J  c #004545",
"K  c #004646",
"L  c #004747",
"P  c #004848",
"I  c #004949",
"U  c #004A4A",
"Y  c #004B4B",
"T  c #004C4C",
"R  c #004D4D",
"E  c #004E4E",
"W  c #004F4F",
"Q  c #005050",
"!  c #005151",
"~  c #005252",
"^  c #005353",
"/  c #005454",
"(  c #005555",
")  c #005656",
"_  c #005757",
"`  c #005858",
"'  c #005959",
"]  c #005A5A",
"[  c #005B5B",
"{  c #005C5C",
"}  c #005D5D",
"|  c #005E5E",
" . c #005F5F",
".. c #006060",
"X. c #006161",
"o. c #006262",
"O. c #006363",
"+. c #006464",
"@. c #006565",
"#. c #006666",
"$. c #006767",
"%. c #006868",
"&. c #006969",
"*. c #006A6A",
"=. c #006B6B",
"-. c #006C6C",
";. c #006D6D",
":. c #006E6E",
">. c #006F6F",
",. c #007070",
"<. c #007171",
"1. c #007272",
"2. c #007373",
"3. c #007474",
"4. c #007575",
"5. c #007676",
"6. c #007777",
"7. c #007878",
"8. c #007979",
"9. c #007A7A",
"0. c #007B7B",
"q. c #007C7C",
"w. c #007D7D",
"e. c #007E7E",
"r. c #007F7F",
"t. c #008080",
"y. c #008181",
"u. c #008383",
"i. c #008484",
"p. c #008585",
"a. c #008686",
"s. c #008787",
"d. c #008888",
"f. c #008989",
"g. c #008A8A",
"h. c #008B8B",
"j. c #008C8C",
"k. c #008D8D",
"l. c #008E8E",
"z. c #008F8F",
"x. c #009090",
"c. c #009191",
"v. c #009292",
"b. c #009393",
"n. c #009494",
"m. c #009595",
"M. c #009696",
"N. c #009797",
"B. c #009898",
"V. c #009999",
"C. c #009A9A",
"Z. c #009B9B",
"A. c #009C9C",
"S. c #009D9D",
"D. c #009E9E",
"F. c #009F9F",
"G. c #00A0A0",
"H. c #00A1A1",
"J. c #00A2A2",
"K. c #00A3A3",
"L. c #00A4A4",
"P. c #00A5A5",
"I. c #00A6A6",
"U. c #00A7A7",
"Y. c #00A8A8",
"T. c #00A9A9",
"R. c #00AAAA",
"E. c #00ABAB",
"W. c #00ACAC",
"Q. c #00ADAD",
"!. c #00AEAE",
"~. c #00AFAF",
"^. c #00B0B0",
"/. c #00B1B1",
"(. c #00B2B2",
"). c #00B3B3",
"_. c #00B4B4",
"`. c #00B5B5",
"'. c #00B6B6",
"]. c #00B7B7",
"[. c #00B8B8",
"{. c #00B9B9",
"}. c #00BABA",
"|. c #00BBBB",
" X c #00BCBC",
".X c #00BDBD",
"XX c #00BEBE",
"oX c #00BFBF",
"OX c #00C0C0",
"+X c #00C1C1",
"@X c #00C2C2",
"#X c #00C3C3",
"$X c #00C5C5",
"%X c #00C6C6",
"&X c #00C7C7",
"*X c #00C8C8",
"=X c #00C9C9",
"-X c #00CACA",
";X c #00CBCB",
":X c #00CCCC",
">X c #00CDCD",
",X c #00CECE",
"<X c #00CFCF",
"1X c #00D0D0",
"2X c #00D1D1",
"3X c #00D2D2",
"4X c #00D3D3",
"5X c #00D4D4",
"6X c #00D5D5",
"7X c #00D6D6",
"8X c #00D7D7",
"9X c #00D8D8",
"0X c #00D9D9",
"qX c #00DADA",
"wX c #00DBDB",
"eX c #00DCDC",
"rX c #00DDDD",
"tX c #00DEDE",
"yX c #00DFDF",
"uX c #00E0E0",
"iX c #00E1E1",
"pX c #00E2E2",
"aX c #00E3E3",
"sX c #00E4E4",
"dX c #00E5E5",
"fX c #00E6E6",
"gX c #00E7E7",
"hX c #00E8E8",
"jX c #00E9E9",
"kX c #00EAEA",
"lX c #00EBEB",
"zX c #00ECEC",
"xX c #00EDED",
"cX c #00EEEE",
"vX c #00EFEF",
"bX c #00F0F0",
"nX c #00F1F1",
"mX c #00F2F2",
"MX c #00F3F3",
"NX c #00F4F4",
"BX c #00F5F5",
"VX c #00F6F6",
"CX c #00F7F7",
"ZX c #00F8F8",
"AX c #00F9F9",
"SX c #00FAFA",
"DX c #00FBFB",
"FX c #00FCFC",
"GX c #00FDFD",
"HX c #00FEFE",
"JX c cyan",
"KX c None",
/* pixels */
"KXKXKXKXKXKXKXKXKXKXKXKXKXKXKXKXKXKXKXKXKXKXKXKXKXKXKXKXKXKXKXKXKXKXKXKXKXKXKXKXKXKXKXKXKXKXKXKXKXKXKXKXKXKXKXKXKXKXKXKXKXKXKXKX",
"KXKXKXKXKXKXKXKXKXKXKXKXKXKXKXKXKXKXKXKXKXKXKXKXKXKXKXKXKXKXKXKXKXKXKXKXKXKXKXKXKXKXKXKXKXKXKXKXKXKXKXKXKXKXKXKXKXKXKXKXKXKXKXKX",
"KXKXKXKXKXKXKXKXKXKXKXKXKXKXKXKXKXKXKXKXKXKXKXKXAXDXFXGXHXHXHXHXGXFXAXNXKXKXKXKXKXKXKXKXKXKXKXKXKXKXKXKXKXKXKXKXKXKXKXKXKXKXKXKX",
"KXKXKXKXKXKXKXKXKXKXKXKXKXKXKXKXKXKXKXKXKXFXHXJXJXJXJXJXJXJXJXJXJXJXJXJXJXGXAXzXKXKXKXKXKXKXKXKXKXKXKXKXKXKXKXKXKXKXKXKXKXKXKXKX",
"KXKXKXKXKXKXKXKXKXKXKXKXKXKXKXKXKXKXDXHXJXJXJXJXJXJXJXJXJXJXJXJXJXJXJXJXJXJXJXJXGXMXKXKXKXKXKXKXKXKXKXKXKXKXKXKXKXKXKXKXKXKXKXKX",
"KXKXKXKXKXKXKXKXKXKXKXKXKXKXKXKXDXHXJXJXJXJXJXJXJXJXJXJXJXJXJXJXJXJXJXJXJXJXJXJXJXJXHXmXKXKXKXKXKXKXKXKXKXKXKXKXKXKXKXKXKXKXKXKX",
"KXKXKXKXKXKXKXKXKXKXKXKXKXKXKXHXJXJXJXJXJXJXJXJXJXJXJXJXJXJXJXJXJXJXJXJXJXJXJXJXJXJXJXJXGXfXKXKXKXKXKXKXKXKXKXKXKXKXKXKXKXKXKXKX",
"KXKXKXKXKXKXKXKXKXKXKXKXKXFXJXJXJXJXJXJXJXJXJXJXJXJXJXJXJXJXJXJXJXJXJXJXJXJXJXJXJXJXJXJXJXJXBX{.KXKXKXKXKXKXKXKXKXKXKXKXKXKXKXKX",
"KXKXKXKXKXKXKXKXKXKXKXKXGXJXJXJXJXJXJXJXJXJXJXJXJXJXJXJXJXJXJXJXJXJXJXJXJXJXJXJXJXJXJXJXJXJXJXDX>XKXKXKXKXKXKXKXKXKXKXKXKXKXKXKX",
"KXKXKXKXKXKXKXKXKXKXKXHXJXJXJXJXJXJXJXJXJXJXJXJXJXJXJXJXJXJXJXJXJXJXJXJXJXJXJXJXJXJXJXJXJXJXJXJXHX7XKXKXKXKXKXKXKXKXKXKXKXKXKXKX",
"KXKXKXKXKXKXKXKXKXKXHXJXJXJXJXJXJXJXJXJXJXJXJXJXJXJXJXJXJXJXJXJXJXJXJXJXJXJXJXJXJXJXJXJXJXHXJXJXJXHX7XKXKXKXKXKXKXKXKXKXKXKXKXKX",
"KXKXKXKXKXKXKXKXKXHXJXJXJXJXJXJXJXJXJXJXJXJXJXJXJXJXJXJXJXJXJXJXJXJXJXJXHXFXGXHXnXiXiXhXmXSXGXGXGXHXHX>XKXKXKXKXKXKXKXKXKXKXKXKX",
"KXKXKXKXKXKXKXKXGXJXJXJXJXJXJXJXJXJXJXJXJXJXJXJXJXJXJXJXJXJXJXJXZXyX{.l.;.&XVX1XJ t i k K *.D.<XvXAXDXDX`.KXKXKXKXKXKXKXKXKXKXKX",
"KXKXKXKXKXKXKXFXJXJXJXJXJXJXJXJXJXJXJXJXJXJXJXJXJXJXJXJXJXJXJXxXX.r $   < R.wX1.            O q ` R.pXNXmXf.KXKXKXKXKXKXKXKXKXKX",
"KXKXKXKXKXKXKXJXJXJXJXJXJXJXJXJXJXJXJXJXJXJXJXJXJXJXMX5XmXSXJX;X,       e v.`.!                   = y.qXcXiXKXKXKXKXKXKXKXKXKXKX",
"KXKXKXKXKXKXHXJXJXJXJXJXJXJXJXJXJXJXJXJXJXJXJXGXuXB.J h =XlXVXJ.o       s 5.F.(                     [ ).8XMX XKXKXKXKXKXKXKXKXKX",
"KXKXKXKXKXFXJXJXJXJXJXJXJXJXJXJXJXJXJXJXJXJXqX4.a o   = N.;XaX2.        k ;.D.*.                  X R v.$XzXmX>.KXKXKXKXKXKXKXKX",
"KXKXKXKXKXHXJXJXJXJXJXJXJXJXJXJXJXJXJXJXJXJX8.        O +.U.-XP       X C 1.Y.i.X       . = : * + + Y a..XjXGX;XKXKXKXKXKXKXKXKX",
"KXKXKXKXFXJXJXJXJXJXJXJXJXJXJXJXJXZXZXFXFXDX|           G z.Q.a       $ U 0.`.F.%       @ m I W R J @.x.#XlXFXVX*.KXKXKXKXKXKXKX",
"KXKXKXKXHXJXJXJXJXJXJXJXJXJXJXmXW.W <.dXnXvXP           z u.l.:       < ) s.+X[.2       + S X.9.g.z.m.!.5XnXGXJX XKXKXKXKXKXKXKX",
"KXKXKXKXJXJXJXJXJXJXJXJXJXMX!.L %   3 R.7X0Xc           a 0.-.o       r X.b.;X,Xu       X A 4.F..X%X*X6XhXZXHXJXlXS KXKXKXKXKXKX",
"KXKXKXGXJXJXJXJXJXJXJXBX).Y &       @ 2.)..Xy           0 1.U         k *.F.5XyXn         N t.`.rXlXxXnXZXGXJXJXGXs.KXKXKXKXKXKX",
"KXKXKXHXJXJXJXJXJXCX{.! =           . T N.H.3           2 @.j       o A 2.R.rXzXT         k r.[.dXZXFXGXHXJXJXJXJXOXKXKXKXKXKXKX",
"KXKXKXJXJXJXJXZXoX` ;                 m a.A.*.h         - ^ 5       % Y w.'.sXNX@.        i 7.(.aXAXHXJXJXJXJXJXJXaXd KXKXKXKXKX",
"KXKXSXJXJXFX#X{ >                     f 0.!.*X/         $ Z &       2 _ s.+XkXSXr.        8 ,.E.tXZXHXJXJXJXJXJXJXVX) KXKXKXKXKX",
"KXKXDXJXJXqXy                         e 2.T.,X:.        + a o       5 } x.-XvXFXV..       , #.K.0XVXHXJXJXJXJXJXJXHXe.KXKXKXKXKX",
"KXKXGXJXJXoX*           O < ,         4 =.P.5Xk..       X : .       @ Q m.>XbXGX(.#       & [ A.4XNXHXJXJXHXHXJXJXJXD.KXKXKXKXKX",
"KXKXGXJXJXL.X         8 M R V X       ; o.G.6XY.$         X           g j.$XzXFX&X<       O Q m.>XhX0X^.W.nXCXFXHXJX_.  KXKXKXKX",
"KXKXHXJXJXG.4       X n _ :.O.#       $ ' V.2X.X<         * o         % &._.uXCX0Xr       . B -.$.H q o T 8XdXNXFXJX+X+ KXKXKXKX",
"KXKXHXJXGXzX0.      . n @.7.] @       O E b.;X:Xr         3 <           x B.>XcXdXc         # #         Y !.-XjXSXJX=X% KXKXKXKX",
"KXKXHXJXHXCXJ.@       c L , O         . G j.$X7Xz         1 h X         & -.'.uXlXI                     F g.`.iXZXJX-X* KXKXKXKX",
"KXKXHXJXHXDXOX<       d z               V a.oXtXK         ; G 3           c V.>XjX..                . < Y e.).pXAXJX%X$ KXKXKXKX",
"KXKXGXJXJXHXwXp       q t               C u. XaX}         % R A X         & =.`.yX7.            . : j T @.j.oXhXDXJX Xo KXKXKXKX",
"KXKXFXJXJXHXzXZ       , 1         X $ 6 ! s.oXgX6.        + U &.7           z B.>Xh..       . = f P [ ;.d.!.7XnXGXJXR.  KXKXKXKX",
"KXKXAXJXJXHXVX`       @ #         4 A Q ;.B.-XcXc.        X G w.W .         % %.'.B.#     * s J ' =.u.S.}.7XzXAXHXJXl.  KXKXKXKX",
"KXKXNXJXJXJXFX6.      X #         $ D %.j.].rXBXR.+         N e.f.9           h M.U.j 4 c I ` &.y.A.[.1XaXnXSXHXJXFX&.  KXKXKXKX",
"KXKXKXJXJXJXHXn.      o e +         y 4.U.3XcXDXOX;         k 0.I.{           @ ..T.P.z.w.2.r.V.`.<XaXbXZXGXHXJXJXvXA   KXKXKXKX",
"KXKXKXGXJXJXJX^.#       h w         + ' R.9XMXGX5X9         p 6.R.L.8         % L m.].[.Y.P.`.:XiXvXZXGXHXJXJXJXJX5X4 KXKXKXKXKX",
"KXKXKXAXJXJXJX=X1       d K *         t l.*XlXSXaXg         9 ,.U.=X..  . = a K %.b..X3X6X9XpXcXCXFXHXJXJXJXJXJXJXK.  KXKXKXKXKX",
"KXKXKXzXJXJXJXeXu       y ..M         X ~ !.qXNXxXS         1 %.K.1X/.M J ^ [ *.p.R.2XjXmXBXZXFXHXJXJXJXJXJXJXJXAX .  KXKXKXKXKX",
"KXKXKXKXGXJXJXlXM       9 #.2.8         5 u.#XhXnX)         =  .S.<XrXXXA.i.a.C.`.1XhXCXFXHXHXJXJXJXJXJXJXJXJXJX9Xq   KXKXKXKXKX",
"KXKXKXKXMXJXHXBX!       1 +.x. .o         G I.6XvX;.      X 3 | Z.1XjXyX%X]..X,XuXvXZXGXJXJXJXJXJXJXJXJXJXJXJXJXc.  KXKXKXKXKXKX",
"KXKXKXKXKXHXJXSXl.3     = | m.L.h         : 6..XsXi.$ 8 f V ~ 2.K.5XbXmXjXaXgXbXCXFXHXJXJXJXJXJXJXJXJXJXJXJXJXgXb   KXKXKXKXKXKX",
"KXKXKXKXKXmXJXDXgXI./ r < { N.oXy.@         Z J.3X@XM.f.1.:.0.M. XiXVXDXSXAXSXGXHXJXJXJXJXJXJXJXJXJXJXJXJXJXJXZ.    KXKXKXKXKXKX",
"KXKXKXKXKXKXGXGXmX0X(.f.;.q.K.-X*X&.G M M F  .M.$XuX6X_.F.H./.%XrXnXDXHXJXHXJXJXJXJXJXJXJXJXJXJXJXJXJXJXJXJXuXl   KXKXKXKXKXKXKX",
"KXKXKXKXKXKXfXJXSXxX9XOX~.W.XXqXsX2XE.h.w.w.g.I.:XdXfX0X2X6XuXlXBXDXHXJXJXJXJXJXJXJXJXJXJXJXJXJXJXJXJXJXJXDXq.    KXKXKXKXKXKXKX",
"KXKXKXKXKXKXKXBXHXSXMXhXtX0XyXxXMXjX4XoX`.`. X:XiXnXVXMXmXNXZXDXGXJXJXJXJXJXJXJXJXJXJXJXJXJXJXJXJXJXJXJXJX}.,   KXKXKXKXKXKXKXKX",
"KXKXKXKXKXKXKX}.DXJXGXSXCXBXVXSXFXZXbXjXsXsXgXxXBXDXGXGXGXHXHXJXJXJXJXJXJXJXJXJXJXJXJXJXJXJXJXJXJXJXJXJXrXm   KXKXKXKXKXKXKXKXKX",
"KXKXKXKXKXKXKXKX,XHXJXJXHXHXHXHXJXHXFXDXSXSXDXFXGXHXJXJXJXJXJXJXJXJXJXJXJXJXJXJXJXJXJXJXJXJXJXJXJXJXJXxX{     KXKXKXKXKXKXKXKXKX",
"KXKXKXKXKXKXKXKXKX7XHXJXJXJXJXJXJXJXJXJXJXJXJXJXJXJXJXJXJXJXJXJXJXJXJXJXJXJXJXJXJXJXJXJXJXJXJXJXJXJXMX4..   KXKXKXKXKXKXKXKXKXKX",
"KXKXKXKXKXKXKXKXKXKX7XHXJXJXJXJXJXJXJXJXJXJXJXJXJXJXJXJXJXJXJXJXJXJXJXJXJXJXJXJXJXJXJXJXJXJXJXJXJXMXw.O   KXKXKXKXKXKXKXKXKXKXKX",
"KXKXKXKXKXKXKXKXKXKXKX>XFXJXJXJXJXJXJXJXJXJXJXJXJXJXJXJXJXJXJXJXJXJXJXJXJXJXJXJXJXJXJXJXJXJXJXJXcX3.O   KXKXKXKXKXKXKXKXKXKXKXKX",
"KXKXKXKXKXKXKXKXKXKXKXKX'.CXJXJXJXJXJXJXJXJXJXJXJXJXJXJXJXJXJXJXJXJXJXJXJXJXJXJXJXJXJXJXJXJXJXtX[ X   KXKXKXKXKXKXKXKXKXKXKXKXKX",
"KXKXKXKXKXKXKXKXKXKXKXKXKXg.gXJXJXJXJXJXJXJXJXJXJXJXJXJXJXJXJXJXJXJXJXJXJXJXJXJXJXJXJXJXJXDX|.n     KXKXKXKXKXKXKXKXKXKXKXKXKXKX",
"KXKXKXKXKXKXKXKXKXKXKXKXKXKXKXXXBXJXJXJXJXJXJXJXJXJXJXJXJXJXJXJXJXJXJXJXJXJXJXJXJXJXJXJXiX0.,     KXKXKXKXKXKXKXKXKXKXKXKXKXKXKX",
"KXKXKXKXKXKXKXKXKXKXKXKXKXKXKXKX;.;XCXJXJXJXJXJXJXJXJXJXJXJXJXJXJXJXJXJXJXJXJXJXJXHXhXZ.k     KXKXKXKXKXKXKXKXKXKXKXKXKXKXKXKXKX",
"KXKXKXKXKXKXKXKXKXKXKXKXKXKXKXKXKXKX&. XlXGXJXJXJXJXJXJXJXJXJXJXJXJXJXJXJXJXJXAX9Xc.v o     KXKXKXKXKXKXKXKXKXKXKXKXKXKXKXKXKXKX",
"KXKXKXKXKXKXKXKXKXKXKXKXKXKXKXKXKXKXKXKXA s.OXaXVXHXJXJXJXJXJXJXJXJXJXFXbX6XL.| 0 .     KXKXKXKXKXKXKXKXKXKXKXKXKXKXKXKXKXKXKXKX",
"KXKXKXKXKXKXKXKXKXKXKXKXKXKXKXKXKXKXKXKXKXKXKXd ) e.D._.+X=X-X%X XR.l.&.Z 3 .     KXKXKXKXKXKXKXKXKXKXKXKXKXKXKXKXKXKXKXKXKXKXKX",
"KXKXKXKXKXKXKXKXKXKXKXKXKXKXKXKXKXKXKXKXKXKXKXKXKXKXKX. + & * $ o         KXKXKXKXKXKXKXKXKXKXKXKXKXKXKXKXKXKXKXKXKXKXKXKXKXKXKX",
"KXKXKXKXKXKXKXKXKXKXKXKXKXKXKXKXKXKXKXKXKXKXKXKXKXKXKXKXKXKXKXKXKXKXKXKXKXKXKXKXKXKXKXKXKXKXKXKXKXKXKXKXKXKXKXKXKXKXKXKXKXKXKXKX",
"KXKXKXKXKXKXKXKXKXKXKXKXKXKXKXKXKXKXKXKXKXKXKXKXKXKXKXKXKXKXKXKXKXKXKXKXKXKXKXKXKXKXKXKXKXKXKXKXKXKXKXKXKXKXKXKXKXKXKXKXKXKXKXKX",
"KXKXKXKXKXKXKXKXKXKXKXKXKXKXKXKXKXKXKXKXKXKXKXKXKXKXKXKXKXKXKXKXKXKXKXKXKXKXKXKXKXKXKXKXKXKXKXKXKXKXKXKXKXKXKXKXKXKXKXKXKXKXKXKX",
"KXKXKXKXKXKXKXKXKXKXKXKXKXKXKXKXKXKXKXKXKXKXKXKXKXKXKXKXKXKXKXKXKXKXKXKXKXKXKXKXKXKXKXKXKXKXKXKXKXKXKXKXKXKXKXKXKXKXKXKXKXKXKXKX"
};
