/* XPM */
static char *result[] = {
/* columns rows colors chars-per-pixel */
"32 32 184 2 ",
"   c black",
".  c #000101",
"X  c #000202",
"o  c #000303",
"O  c #000404",
"+  c #000505",
"@  c #000606",
"#  c #000707",
"$  c #000808",
"%  c #000909",
"&  c #000A0A",
"*  c #000B0B",
"=  c #000C0C",
"-  c #000D0D",
";  c #000E0E",
":  c #000F0F",
">  c #001010",
",  c #001111",
"<  c #001212",
"1  c #001414",
"2  c #001515",
"3  c #001616",
"4  c #001717",
"5  c #001818",
"6  c #001919",
"7  c #001A1A",
"8  c #001B1B",
"9  c #001C1C",
"0  c #001E1E",
"q  c #001F1F",
"w  c #002222",
"e  c #002323",
"r  c #002424",
"t  c #002525",
"y  c #002727",
"u  c #002828",
"i  c #002A2A",
"p  c #002B2B",
"a  c #002C2C",
"s  c #002D2D",
"d  c #002E2E",
"f  c #002F2F",
"g  c #003030",
"h  c #003131",
"j  c #003333",
"k  c #003535",
"l  c #003636",
"z  c #003737",
"x  c #003838",
"c  c #003A3A",
"v  c #003C3C",
"b  c #003D3D",
"n  c #003E3E",
"m  c #003F3F",
"M  c #004040",
"N  c #004343",
"B  c #004848",
"V  c #004949",
"C  c #004A4A",
"Z  c #004B4B",
"A  c #004E4E",
"S  c #004F4F",
"D  c #005050",
"F  c #005353",
"G  c #005454",
"H  c #005656",
"J  c #005757",
"K  c #005858",
"L  c #005959",
"P  c #005A5A",
"I  c #005B5B",
"U  c #005D5D",
"Y  c #005E5E",
"T  c #006161",
"R  c #006363",
"E  c #006464",
"W  c #006565",
"Q  c #006666",
"!  c #006868",
"~  c #006969",
"^  c #006A6A",
"/  c #006B6B",
"(  c #007272",
")  c #007474",
"_  c #007676",
"`  c #007777",
"'  c #007878",
"]  c #007979",
"[  c #007A7A",
"{  c #007C7C",
"}  c #008080",
"|  c #008383",
" . c #008484",
".. c #008585",
"X. c #008686",
"o. c #008888",
"O. c #008989",
"+. c #008A8A",
"@. c #008B8B",
"#. c #008C8C",
"$. c #008D8D",
"%. c #008F8F",
"&. c #009090",
"*. c #009191",
"=. c #009292",
"-. c #009494",
";. c #009696",
":. c #009898",
">. c #009A9A",
",. c #009F9F",
"<. c #00A0A0",
"1. c #00A2A2",
"2. c #00A7A7",
"3. c #00A8A8",
"4. c #00A9A9",
"5. c #00AAAA",
"6. c #00ABAB",
"7. c #00B0B0",
"8. c #00B1B1",
"9. c #00B2B2",
"0. c #00B4B4",
"q. c #00B5B5",
"w. c #00B6B6",
"e. c #00B7B7",
"r. c #00B8B8",
"t. c #00B9B9",
"y. c #00BABA",
"u. c #00BBBB",
"i. c #00BEBE",
"p. c #00BFBF",
"a. c #00C2C2",
"s. c #00C3C3",
"d. c #00C5C5",
"f. c #00C7C7",
"g. c #00C9C9",
"h. c #00CACA",
"j. c #00CBCB",
"k. c #00CCCC",
"l. c #00CECE",
"z. c #00CFCF",
"x. c #00D0D0",
"c. c #00D1D1",
"v. c #00D2D2",
"b. c #00D3D3",
"n. c #00D4D4",
"m. c #00D6D6",
"M. c #00D7D7",
"N. c #00D9D9",
"B. c #00DADA",
"V. c #00DBDB",
"C. c #00DCDC",
"Z. c #00DDDD",
"A. c #00DEDE",
"S. c #00E0E0",
"D. c #00E1E1",
"F. c #00E2E2",
"G. c #00E3E3",
"H. c #00E4E4",
"J. c #00E5E5",
"K. c #00E6E6",
"L. c #00E7E7",
"P. c #00E8E8",
"I. c #00E9E9",
"U. c #00EAEA",
"Y. c #00EBEB",
"T. c #00EDED",
"R. c #00EEEE",
"E. c #00EFEF",
"W. c #00F0F0",
"Q. c #00F2F2",
"!. c #00F3F3",
"~. c #00F4F4",
"^. c #00F5F5",
"/. c #00F6F6",
"(. c #00F7F7",
"). c #00F8F8",
"_. c #00F9F9",
"`. c #00FAFA",
"'. c #00FBFB",
"]. c #00FCFC",
"[. c #00FDFD",
"{. c #00FEFE",
"}. c cyan",
"|. c None",
/* pixels */
"|.|.|.|.|.|.|.|.|.|.|.|.|.|.|.|.|.|.|.|.|.|.|.|.|.|.|.|.|.|.|.|.",
"|.|.|.|.|.|.|.|.|.|.|.].[.{.{.{.[.'./.|.|.|.|.|.|.|.|.|.|.|.|.|.",
"|.|.|.|.|.|.|.|.|.{.}.}.}.}.}.}.}.}.}.{.`.I.|.|.|.|.|.|.|.|.|.|.",
"|.|.|.|.|.|.|.{.}.}.}.}.}.}.}.}.}.}.}.}.}.}.(.|.|.|.|.|.|.|.|.|.",
"|.|.|.|.|.|.{.}.}.}.}.}.}.}.}.}.}.}.}.}.}.}.}.].m.|.|.|.|.|.|.|.",
"|.|.|.|.|.}.}.}.}.}.}.}.}.}.}.}.}.].).].L.G.E.].{.v.|.|.|.|.|.|.",
"|.|.|.|.{.}.}.}.}.}.}.}.}.}.}.~.:.K O.y.f e x ! 8.Y.w.|.|.|.|.|.",
"|.|.|.{.}.}.}.}.}.}.}.`.z.;.D.h.<   H ] O       : :.S.|.|.|.|.|.",
"|.|.|.}.}.}.}.}.}.}.'.{ 1 - :.=.o o G } %   + & & ^ M.x.|.|.|.|.",
"|.|.{.}.}.}.}.!.q.k.U.l   o R I   * ~ 1.2   q L ~ &.C.^.[ |.|.|.",
"|.|.}.}.}.^.9.C # F y.e     V j   4 } a.r   w &.z.A.~.}.u.|.|.|.",
"|.[.}.(.r.S *     u $.l     h 5   u ;.V.x   7 ;.T.{.}.}.D.|.|.|.",
"|.}.T.Y =         4 %.+.+   5 $   z 4.T.S   > X.P.}.}.}.!.P |.|.",
"|.}.j.>   % u 3   ;  .3.;   + .   t 4.!.~   $ ) n.n.F.].'.` |.|.",
"|.}.V.s   0 T f   $ ) r.8   # #   @ ` K.|   X a k 5  .J.]...|.|.",
"|.{.'.E   6 y O   o E p.p   = 0     g p.:..       % W j.`.X.|.|.",
"|.[.}.o.  = -   X : Q f.m   % N ;   # [ ,.%   @ w A #.B.'.' |.|.",
"|.'.}.3.o o O   % B -.Z.J   O L M     f *.y e C [ 5.M.(./.P |.|.",
"|./.}.s.- o 4 .   m u.^.(   . F o.>   * _ <.&.2.b.W.].}.J.h |.|.",
"|.|.}.N.9   k 5   > &.E.#.    N 9.U i Z #.v.H.W.].}.}.}.i.% |.|.",
"|.|.'.Y.g   M P +   v g.<.o . b q.v.2.6.b.~.{.}.}.}.}.].` |.|.|.",
"|.|.U._.$.w n >.z   = X.e.J D _ d.~.E.Q.].}.}.}.}.}.}.m.r |.|.|.",
"|.|.|./.T.7.*.a.0./ I @.n.b.u.z.R.[.}.}.}.}.}.}.}.}._.` |.|.|.|.",
"|.|.|.|.`.~.P.R.~.V.k.m.E.).(.].}.}.}.}.}.}.}.}.}.}.0., |.|.|.|.",
"|.|.|.|.m.[.}.}.}.[.].[.{.}.}.}.}.}.}.}.}.}.}.}.}.l.d |.|.|.|.|.",
"|.|.|.|.|.c.].}.}.}.}.}.}.}.}.}.}.}.}.}.}.}.}.}.l.c |.|.|.|.|.|.",
"|.|.|.|.|.|.t.~.}.}.}.}.}.}.}.}.}.}.}.}.}.}._.0.s |.|.|.|.|.|.|.",
"|.|.|.|.|.|.|.|.v.(.}.}.}.}.}.}.}.}.}.}.].M._ < |.|.|.|.|.|.|.|.",
"|.|.|.|.|.|.|.|.|.] u.D.~.'.{.{.[./.J.i.` e |.|.|.|.|.|.|.|.|.|.",
"|.|.|.|.|.|.|.|.|.|.|.|.P ` ..X.' P g & |.|.|.|.|.|.|.|.|.|.|.|.",
"|.|.|.|.|.|.|.|.|.|.|.|.|.|.|.|.|.|.|.|.|.|.|.|.|.|.|.|.|.|.|.|.",
"|.|.|.|.|.|.|.|.|.|.|.|.|.|.|.|.|.|.|.|.|.|.|.|.|.|.|.|.|.|.|.|."
};
