/* XPM */
static char *result[] = {
/* columns rows colors chars-per-pixel */
"16 16 104 2 ",
"   c #000303",
".  c #000606",
"X  c #000707",
"o  c #000808",
"O  c #000A0A",
"+  c #000B0B",
"@  c #000D0D",
"#  c #000E0E",
"$  c #000F0F",
"%  c #001010",
"&  c #001313",
"*  c #001414",
"=  c #001515",
"-  c #001818",
";  c #001A1A",
":  c #001D1D",
">  c #001E1E",
",  c #002020",
"<  c #002121",
"1  c #002424",
"2  c #002525",
"3  c #002727",
"4  c #002929",
"5  c #002A2A",
"6  c #002E2E",
"7  c #003030",
"8  c #003131",
"9  c #003333",
"0  c #003737",
"q  c #003939",
"w  c #004646",
"e  c #004848",
"r  c #004D4D",
"t  c #004F4F",
"y  c #005151",
"u  c #005252",
"i  c #005353",
"p  c #005555",
"a  c #005858",
"s  c #005A5A",
"d  c #006161",
"f  c #006262",
"g  c #006464",
"h  c #006565",
"j  c #006767",
"k  c #006969",
"l  c #006B6B",
"z  c #007171",
"x  c #007878",
"c  c #007A7A",
"v  c #007E7E",
"b  c #008A8A",
"n  c #008E8E",
"m  c #009090",
"M  c #009494",
"N  c #009696",
"B  c #009898",
"V  c #009B9B",
"C  c #009F9F",
"Z  c #00A0A0",
"A  c #00A4A4",
"S  c #00AAAA",
"D  c #00B3B3",
"F  c #00B4B4",
"G  c #00B6B6",
"H  c #00B7B7",
"J  c #00B9B9",
"K  c #00BCBC",
"L  c #00BEBE",
"P  c #00C0C0",
"I  c #00C3C3",
"U  c #00C5C5",
"Y  c #00C8C8",
"T  c #00C9C9",
"R  c #00CACA",
"E  c #00CBCB",
"W  c #00CDCD",
"Q  c #00D3D3",
"!  c #00D5D5",
"~  c #00D6D6",
"^  c #00D7D7",
"/  c #00DBDB",
"(  c #00DCDC",
")  c #00DDDD",
"_  c #00DEDE",
"`  c #00E0E0",
"'  c #00E4E4",
"]  c #00E6E6",
"[  c #00E9E9",
"{  c #00EAEA",
"}  c #00ECEC",
"|  c #00EDED",
" . c #00F2F2",
".. c #00F4F4",
"X. c #00F5F5",
"o. c #00F7F7",
"O. c #00F9F9",
"+. c #00FAFA",
"@. c #00FBFB",
"#. c #00FCFC",
"$. c #00FDFD",
"%. c #00FEFE",
"&. c cyan",
"*. c None",
/* pixels */
"*.*.*.*.*.*.#.#.+.*.*.*.*.*.*.*.",
"*.*.*.*.%.&.&.&.&.&.@.*.*.*.*.*.",
"*.*.*.&.&.&.&.&.o.X.] } _ *.*.*.",
"*.*.&.&.&.o.Q ! s c 7 9 n G *.*.",
"*.%.&. .) Z , j = g = : k Q *.*.",
"*.X.F e 0 d X 3 ; B 2 a ` O.S *.",
"&.m # @ * x & . > H q w Q ..I *.",
"&.M % 2 + v < O o b t O 4 S Y *.",
"&.P $   : V 8 1 - 9 p < h W K *.",
"*.~ > & : H e 5 f 6 N P { $.B *.",
"*.' t y > l z r U E } &.&.[ i *.",
"*.*.^ T D A / ( o.&.&.&.$.C *.*.",
"*.*.` #.&.$.%.&.&.&.&.#.J *.*.*.",
"*.*.*.U | $.&.&.&.%.{ C *.*.*.*.",
"*.*.*.*.*.S I R L B u *.*.*.*.*.",
"*.*.*.*.*.*.*.*.*.*.*.*.*.*.*.*."
};
